<svg version="1.2" xmlns="http://www.w3.org/2000/svg" viewBox="0 0 1280 1280" width="1280" height="1280">
	<title>download-svg (1) (1)</title>
	<style>
		.s0 { fill: none;stroke: #9a9ca6;stroke-width: 2 } 
		.s1 { fill: none;stroke: #9798a2;stroke-width: 2 } 
		.s2 { fill: none;stroke: #94959f;stroke-width: 2 } 
		.s3 { fill: none;stroke: #8f9099;stroke-width: 2 } 
		.s4 { fill: none;stroke: #232538;stroke-width: 2 } 
		.s5 { fill: none;stroke: #2b2e41;stroke-width: 2 } 
		.s6 { fill: none;stroke: #935885;stroke-width: 2 } 
		.s7 { fill: none;stroke: #323549;stroke-width: 2 } 
		.s8 { fill: none;stroke: #965c88;stroke-width: 2 } 
		.s9 { fill: #ffffff } 
		.s10 { fill: #1e2032 } 
		.s11 { fill: #282a3e } 
		.s12 { fill: #2e3144 } 
		.s13 { fill: #35394d } 
		.s14 { fill: #fd86cb } 
	</style>
	<g id="Layer 1">
		<g>
			<path class="s0" d="m1280-18.2h-160"/>
			<path class="s1" d="m1120-22.2h-128"/>
			<path class="s2" d="m992-15.2h-437.8"/>
			<path class="s3" d="m554.2-24.2h-554.2"/>
			<path class="s4" d="m-350.8 220.8q23.7 0.3 47.4 1.1 7 0.3 12.1 1.3 2 0.4 3.1 1.2 0.4 0.2 0.6 0.6 0.2 0.4 0.2 0.9 0.1 0.5-0.1 0.9-0.2 0.4-0.5 0.7-11 10.1-13.1 12.1c-7.4 7.3-16.2 13.7-23.8 20.8q-8.1 7.5-15.1 15c-3.1 3.3-6.2 7.6-8 11.5q-5.3 11.4-8.5 17.4-6.9 12.8-17.4 23.4-13.4 13.6-14.2 14.4-5.1 5.3-6.8 7.8-5.8 9-7.8 11.3-2.4 2.7-13 12.8-2.2 2-3.7 3.8-10.5 12.6-19.2 24c-3.1 4-6.4 7.8-9.4 11.5-1.1 1.3-2.5 3.7-2.6 5.2-0.4 5-0.6 9.3-3.1 13-8.2 12.7-14.8 26.6-21.6 38.6-8 14.1-14.6 30.1-19.2 44.4q-2.4 7.4-2.7 10.4-0.9 8.5-1.3 12.1-0.7 5.3-2.3 11.9-2.1 8.7-3.5 17.6-1.4 9.5-1.3 13.2c0.3 5.9 2.2 14.4 2.4 20.6q0.3 11.1-2.7 21.9-3.8 13.9-4.2 18.4-0.7 9.4-0.6 16.8c0.4 18-11.7 25.7-25.2 34.2q-11.5 7.3-16.7 19.4c-1.5 3.7-1.7 7.8-2 11.8q-0.1 1-0.9 4.2"/>
			<path class="s3" d="m349.5 511q-12.5 1.3-15.8 2-15.4 2.9-30.5 7-7.9 2.2-17.2 5.6-12.8 4.7-16.9 6.4-34.5 14.5-64.1 37.2-5.2 4-11.7 10-8.1 7.6-11.2 10.7-11.9 12.3-20.9 28.1c-6.9 12.2-10.9 27-9.3 41q1.4 11.5 8.5 22.3 1.7 2.6 5.2 1 0.1 0 0.1-0.1 2.8-2.5 1-5.5-7.6-12.4-7.1-25.5 0.5-14.5 8.4-29.2 4.3-7.9 11.3-17.1c3.1-4 6.2-6.7 9.2-10.2q2.7-3.2 7.2-7.2 10.7-9.8 20.3-16.8 28.7-20.8 62.7-33.9"/>
			<path class="s4" d="m-300.3 542.8q-7.2 18.8-5.7 38.3c0.8 10.1 1.7 15.6 1 22.9q-0.5 5.3-1.7 10.5-2.7 11.8-5 28.5-0.7 5.5-2.2 12.9c-1.8 9.3-1.1 17.4 0.2 28.4q0.6 5.3 0.3 13.5"/>
			<path class="s3" d="m265.6 691.8q-9.2 6.4-16 12.8-11.4 10.8-15.1 26.6c-4.2 18 6.5 34.3 24.4 38.2q7.5 1.6 12.8 1.5 20.8-0.3 41.9-5.8 32.8-8.7 63.7-30.4"/>
			<path class="s4" d="m-681.7 613.7q-2.1 8.3-2.2 12.9c-0.1 11.4 0 22.8-2.2 33.8-2.9 14.3-5.2 24.2-6.7 36.6-1 8.5-2 18.8-3.8 28.2q-0.6 2.8-2.5 14.2-1.4 8.5-1.4 11.9 0.1 15.1-0.1 19.8-0.5 12.2-1.9 18.2-2.8 12-3.3 15.6-0.9 6.6 1 11.8 2.6 7.3 5.7 16.2 2.3 6.7 4.2 17.7 1.4 7.9 3.8 28.6 0.6 5 4.3 19.4c3.6 13.8 1.7 28.7 9.5 40.8 8.3 13 18.9 22 32.8 33.8q5.3 4.4 17.1 17.3 4.7 5.1 6.4 7.7c8.3 13.3 16.3 25.5 28 35.7q7.6 6.7 17.6 13.9 4.6 3.3 8.3 4.9 6.6 2.9 14 6.1 13.9 6 27.3 17.8 6.6 5.7 30.8 25.9c7.9 6.6 16.1 13 25.5 17.4 3.8 1.8 9.1 5.5 12.6 7.3q2.8 1.4 5.3 2.2 11.2 3.2 20.8 7.3 8.6 3.7 13.6 9.7c3.6 4.2 1.6 8.4-1.8 12.6"/>
			<path class="s5" d="m1676 252.8q-15.9 1.2-31.8 2.3-7 0.5-11 2-6 2.3-8.9 6.5-12.3 17.4-26.6 30.1-7 6.3-15.4 12.9-13.3 10.5-29.5 19-11.2 5.8-18.5 14.7c-3.5 4.2-7.9 10-12.5 14.8-9.5 10.1-17.1 18.1-23.4 27.7-5.3 7.9-10.9 18.8-16 26.2-8.9 12.9-18.7 24.7-28.3 35.7-4 4.6-7.1 8.8-9.6 13.7q-3.7 7.4-7.1 17.1-1.3 3.7-4.2 15.2-2.8 10.9-4.7 15.1-4.6 10.3-9.3 20.5-1.4 2.9-10.2 27.4-2 5.5-4.4 11.2c-3.8 8.9-6.8 15.7-7.9 23.2q-1.5 9.5-3 19-2 12.9-9.3 23.4-8 11.4-10.3 14.9-7.4 11.4-10 25.6-1 5.2-1.9 14c-0.6 6.9-1.7 12.6-3.8 18.1-2 5.4-5.4 12.4-7.3 18.1-3.1 9.5-3.7 21-7.3 30.3-2.8 7.7-7.4 18-10.6 26.9-3.1 8.8-5.5 14.7-6.9 22.1q-0.5 2.9-2.4 16.8-2.4 17.7-10.5 36.4c-2.7 6.3-6.8 11.8-10 17.8q-3.8 7.1-4.6 13.4-1.2 8.9-2.8 17.9"/>
			<path class="s2" d="m612 654.8q-13.5 8.6-24.6 18.8-1.6 1.4-0.5-0.5l7.1-13.1q1.7-3-1.2-4.9l-0.2-0.1q-3-2.1-5.2 1-2.4 3.4-3.9 6.4c-1.2 2.5-2.6 3.3-5.1 4.5q-25.5 12.7-42.2 19.7-5.2 2.2-15.6 6.2-7.1 2.8-13.7 3.2-0.3 0-0.5-0.1-0.3-0.1-0.5-0.3-0.2-0.2-0.3-0.5-0.2-0.2-0.2-0.5 0-4 1.7-8 4.9-11.9 11.1-21.4 1.4-2.2 1.4-3.2 0.2-2.1-2.1-3.4-2.7-1.4-5 0.8-16.1 15.5-33.1 28.5-4.5 3.4-10.5 6.4-2.7 1.3-5.4 1.6-0.2 0-0.3 0-0.2-0.1-0.3-0.2-0.1-0.1-0.2-0.2 0-0.1-0.1-0.3-0.2-1.8 0.7-4.1 1.4-3.6 5.1-9.5 3.4-5.4 11.7-18.2 2-3.1-1.1-5.1-0.1-0.1-0.2-0.1-3.1-2-5.3 0.9-7.6 10.5-12.3 18.9-3.9 6.8-5.6 13c-1.2 4.4-1.4 9 2.6 11.5 4.1 2.6 11.1 0.4 15.1-1.8q12.7-6.9 25.4-18.3 1.9-1.7 1.2 0.7-0.5 1.2-1.1 3.4c-1.6 4.8-2.3 12.4 2.5 15.7 2.6 1.7 6.7 1.8 9.6 1.2q9.2-2 19.5-6 21.8-8.4 44.1-19.9 0.8-0.3 0.4 0.5l-10.5 21.4q-0.3 0.4-0.1 0.9 0.6 2.8 2.6 3.5 2.9 1 4.8-1.6 9.6-12.9 18.8-20.9 11.8-10.3 22.7-17.6 0.6-0.4 0.5 0.3-1 9 5.6 14.5c3.2 2.7 8.8 4.4 13 4.9q7.9 1.1 15.5 0.3 13.6-1.5 16.6-1.9 9.1-1.4 18.1-4 1.6-0.5 0.8 0.9c-2.9 4.7-5 11.3-3.1 16.5q2.3 6 10 5.9 2.2-0.1 5.5-0.9"/>
			<path class="s5" d="m1423.7 652.2q-0.7 8.6-2.3 14.3c-2.5 9.3-9.4 17.3-15.1 25.4q-4.5 6.6-7.3 14-5.4 14.6 6.7 24.1c7.6 6 12.8 9.3 15.6 15.9q0.9 2.1 5.3 12.2 2.9 6.7 5.8 10.1 8.1 9.7 10 12.6c4.6 6.8 7.3 13 10.3 19.9 5 11.3 12.4 21.2 21.4 29.9q4.4 4.3 13.5 11.9c2.9 2.4 6.3 5.5 7.9 8 2.6 4 5.3 8.9 9.2 12.7q10.2 9.9 26.2 27 4.5 4.8 6.8 6.9c5 4.7 12.8 11.2 17.5 17.5q3.8 5.1 10.8 16.5 6.1 10 13.6 18 2.9 3.1 9.8 8.3 7.9 5.9 16.3 14.2c8.6 8.6 14.5 14.6 19.8 19.1 5.7 5 12.8 9.3 18.5 15.1q8.5 8.7 19.9 21.5 8.9 10.1 11.6 14.5 4.4 7.4 8.8 14.7 4.8 7.8 15.5 18.7 3.4 3.5 10.4 9.1c9.7 7.9 18.9 16.4 27.6 26.4q5.2 6 15.9 19.1 5.3 6.4 9.3 10.1c6.1 5.6 18.4 13.9 25.3 21.8q4.4 5 12.8 14.9 3.3 3.9 11.8 12.5 8.4 8.4 16.3 16.2 4.1 4 8.2 8.5 5.6 6.3 7.3 7.9 5.8 5.5 16.1 10.3"/>
			<path class="s2" d="m377.3 734.7q15-10.4 28.2-23.2 12.9-12.7 21.9-23.9 13.5-16.7 25.2-39.9 4.4-8.7 7.9-18.4 4.1-11.8 6.3-21.2 3.2-13.7 3-28.1 0-5.9-1.1-12-1.4-8.1-2.7-11.7c-3.1-8.8-8.6-17.9-15.5-24.4q-10.1-9.5-22.5-14.3-18.1-7-37.8-8-20.3-0.9-40.7 1.4"/>
			<path class="s6" d="m421.5 782.3c-1.7 0.8-4 0.6-5.5-0.9q-0.7-0.8-1.4-1.4-0.1-0.1-0.2-0.2-0.1-0.1-0.3-0.2-0.1 0-0.3 0-0.1-0.1-0.3-0.1-2.2 0.2-2.1 2.4 0.1 0.6 0.7 1.3 2.8 2.9 5.4 3.4 4.3 0.8 7.4-1.8 2.7-2.2 3.4-6 0.9-4.7-3.5-8.2c-1.5-1.2-2.9-1.6-5.1-2.4q-2.2-0.9-2.8-2.2c-0.8-2 0.3-3.9 2.3-4.7q2.7-1 4.5 1.6 1 1.5 2.5 0.5 0.2-0.1 0.2-0.1 1.5-1.1 0.4-2.6c-3.2-4.6-9-4.7-12.4-0.5q-2.2 2.9-1.4 6.5 0.3 1.3 2.4 3.6 0.8 0.9 2.8 1.5c3.7 1.2 7.9 3.4 5.8 8q-0.8 1.8-2.5 2.5z"/>
			<path class="s6" d="m491.4 761.6q-0.4 6.8 0.1 11.4c0.3 3.9-0.2 7-0.7 12q-0.1 1.1 1.1 1.2h2.1q0.1 0 0.3 0 0.1-0.1 0.2-0.2 0.1-0.1 0.2-0.3 0.1-0.1 0.1-0.3l0.6-23.8q0-0.6 0.6-0.6l5.5 0.2q1.5 0 1.5-1.5l0.1-1.6q0-1.2-1.2-1.2l-17.6 0.1q-2.1 0-2 1.8 0 0.1 0 0.1-0.1 1.8 1.7 1.9l6.8 0.2q0.1 0 0.2 0 0.1 0.1 0.2 0.2 0.1 0.1 0.1 0.2 0.1 0.1 0.1 0.2z"/>
			<path class="s6" d="m576.3 780.8q-4.7 4.1-8.8 0.6-1.8-1.5-2-4.2-0.3-3.2-0.3-4.9-0.1-4.8 0-13.6 0.1-1.5-1.4-1.3l-1 0.2q-1.6 0.2-1.6 1.8-0.1 4.9 0 14.3 0 4.7 1.1 6.9c2.4 5.3 9 7.7 14.2 4.9q5.5-2.8 5.8-9.2 0.3-8.2 0.1-17.8 0-0.2-0.1-0.5-0.1-0.2-0.3-0.4-0.2-0.2-0.4-0.3-0.3-0.1-0.5-0.1h-0.4q-1.6 0-1.7 1.5-0.3 4.6-0.4 16.1-0.1 4.1-2.3 6z"/>
			<path class="s6" d="m638.9 758.6l-0.2 26.4q0 0.4 0.1 0.7 0.2 0.3 0.4 0.5 0.2 0.3 0.6 0.4 0.3 0.1 0.6 0.1l5.8 0.1c2 0 4-0.4 5.8-1.1 1.8-0.7 3.5-1.8 4.9-3.2 1.4-1.3 2.5-3 3.3-4.7 0.7-1.8 1.1-3.7 1.1-5.7v-0.3c0-2-0.3-3.9-1.1-5.7-0.7-1.8-1.8-3.4-3.2-4.8-1.4-1.3-3.1-2.4-4.9-3.2-1.8-0.7-3.7-1.1-5.7-1.1l-5.8-0.1q-0.4 0-0.7 0.2-0.3 0.1-0.5 0.3-0.3 0.3-0.4 0.6-0.1 0.3-0.1 0.6z"/>
			<path class="s7" d="m1804 252.8q3.4 0.4 6.6 1.4 1.6 0.5 0.5 2.1-0.1 0.1-0.1 0.1-1.6 1.7-6.3 6.6-3.5 3.7-9.1 13.2c-3.9 6.7-8.4 16.6-14.9 23.7-8.1 8.7-24.1 25.1-33.6 37.2q-5.7 7.1-9 13.1c-4.3 7.7-7.9 18.4-11.7 25.9q-5.2 10.4-12.1 20.4-4.1 6-6.6 10.1c-5 8.1-8.8 13.6-14.9 20.6-1.6 1.9-3.7 4.8-5.1 7.4-3.2 6.1-6.3 12-10 17.9q-4.6 7.4-13.7 22-15.2 24.3-24.6 48.9-4.8 12.4-12.1 30.5c-4 10.1-6.8 19.4-10.1 30.6-3.1 10.7-7.2 20.7-11.2 30-4.3 10.3-6.7 18.7-9.3 29.8-2.5 11.1-5.6 21.5-8.6 32.2-1.3 4.5-2.6 9.8-3 13.6q-0.6 5.5-1.1 11c-0.3 2.7-0.9 5.6-1.6 7.7-1.7 5-5.4 12.3-6.3 19.6q-1 8.6-2.1 16.1-1.1 8.5-1.2 12.9 0 22.4-0.9 45.3c-0.2 5.8 0.1 13.3 0.2 17.2q0.1 7.3-0.9 11.3-2.6 11.4-3 19-0.5 9.8 0.4 18.8 0.8 8 4.5 18.1 5.1 14.1 12.7 27.1"/>
			<path class="s1" d="m901.9 666.2q-32.6 5.6-64.7 13.6-0.1 0-0.3 0-0.2 0-0.4-0.1-0.2 0-0.3-0.1-0.2-0.1-0.3-0.2c-3.6-4.1-10.2-5.9-15.6-7.2q-0.3 0-15.6-3.6-0.1 0-0.2-0.2-0.1-0.1-0.2-0.2 0-0.1 0-0.3 0.1-0.1 0.2-0.2 2.5-1.9 5.4-3 10.8-4.5 23.1-6.9 5.9-1.2 10.5-1 0.1 0 0.2 0.1 0.2 0 0.2 0.2 0.1 0.1 0.1 0.2 0 0.2-0.1 0.3-1.9 3.3-5.8 5.6c-1.6 1-2.8 2.6-2.8 4.5 0.2 2.6 3.4 3.9 5.6 2.9q4.1-2 7.4-5.5 3-3.1 3.8-7.9c0.6-3.3-1.9-5.9-4.5-7.3q-0.9-0.5-4.9-0.9-2-0.1-4.9 0.2-12.7 1.4-27 6.6c-4.9 1.7-9.4 3.7-12.5 7.1q-2.1 2.3-2.9 2.8-15.9 9.4-32.4 18-10.5 5.6-21.4 9.9c-2.4 1-9.5 3.3-11.7 1.5-2.6-2.1-1.6-7.1-0.9-9.6q2.7-9.4 7.8-18 1.4-2.3 1.3-3.7c-0.1-2.1-2.3-3.9-4.6-3.4q-1 0.2-1.4 0.2-0.5 0.1-0.9-0.2-9.2-6.8-20.2-4.2-3.5 0.8-8.9 4-4.3 2.6-8.3 5.3-1.7 1.3-3.7 1.9-3.9 1.2-3.9 1.2-3.7 1.5-8.7 2.6-11.3 2.5-22.8 4.4-8.2 1.4-21.3 0.1c-3.1-0.3-6.3-1.5-8.6-3q-3.6-2.4-3.2-6.9 0.2-2.6 0.6-3.6 3.3-7.2 3.4-7.6 0.6-1.4-0.2-2.9c-1.6-2.8-3.7-2.5-6.2-1.1q-3.6 2.1-7.2 4.2"/>
			<path class="s7" d="m1643 1088.3q-0.5 4.9-1.1 9.9-0.5 4.5-1.8 5.8-1.6 1.6-3.3 0.7-6.2-3.4-9.2-4.8-5.2-2.5-9-5.1c-2.9-2.1-8.6-5.1-11.6-8.2-2.9-2.9-5.2-7-8.7-9.4-7.4-5.1-14.3-10.4-22-15.3q-8.2-5.3-9-5.8-5.1-3.3-7.2-5.5c-3.2-3.5-6.4-6.8-10-9.8q-7.8-6.5-11.6-10.8-7.4-8.3-14.3-13.9-2.9-2.3-6-5.9-9.6-11-17.7-21.5-0.7-0.9-11.4-14.1-14.6-18-23.6-39.1-0.7-1.8-7.3-13.8-4.7-8.5-7.3-13.9-6.9-14.1-14.4-25.6c-3-4.7-6.1-10.9-7.6-15q-4.5-12.5-6.8-16.6-2.8-4.9-5.5-9.9c-4.2-7.6-7.9-16.3-11.4-23.6-8.1-16.9-18.1-32.3-24.2-49.5q-5.3-14.9-12.1-38-3.1-10.6-7.2-17.1c-4-6.1-8.5-12.4-11.3-18.5q-5.8-12.9-7.9-26.9c-1.9-11.8 0-24.6-6.6-35.3-2.3-3.7-7.8-8.3-9.9-10.8-4.6-5.3-4.2-11-4.4-18.3-0.1-3.7-1.8-6.5-4.9-8.3q-1.1-0.7-2.2-1.4-0.6-0.4-0.6-0.8-0.1-0.6 0.5-1 0.4-0.4-0.1-0.4l-3.5-0.3"/>
			<path class="s0" d="m947.8 703.5q11.7 0.1 21.8-3.1 18.8-6.1 37-17.1 1.2-0.7 2.2-1 0.1 0 0.2 0.1 0.1 0 0.2 0.1 0 0.1 0.1 0.2 0 0.1-0.1 0.2c-3.4 6.8-2.6 17.6 7.3 18.1q4.3 0.2 7.2-0.9c9.3-3.4 17-9.5 24.7-16.5q1.2-1.1 0.8 0.5-0.9 3.9-0.6 8.5c0.3 7.3 5 11.3 12 11.2q3.3-0.1 5.2-0.7 13.3-4.1 27-11.3 18-9.4 36.1-20.3 2.7-1.5 1.8-4.6 0-0.1-0.1-0.2-2.4-3.7-5.8-1.8-13 7.7-31 17.4-16.2 8.8-28.7 12.7c-2 0.7-7.7 1.9-8.5-1.4-1-4.1 0.2-8.7 1.8-12.7q3.4-8.6 6.6-13.6 1.4-2.3 1.1-3.8c-0.5-2.4-2.3-3.6-4.7-3.1-1.3 0.3-1.7 0.5-2.9-0.4q-8.4-6-18.4-4-7.7 1.5-14.7 6.7-4 3-8.2 5.5-19.5 11.7-32.5 17.8-4.1 2-8.4 3.7c-6.4 2.6-13.6 4.7-20.7 5.5q-6.2 0.7-9.6-0.2c-7.1-1.8-12.7-7.7-16.9-13.5q-3.9-5.4-7.9-11-0.1-0.1-0.1-0.2 0-0.1 0-0.1 0-0.1 0.1-0.2 0 0 0.1-0.1l41.9-16.2q2.7-1.1 2.6-4.1-0.1-0.8-0.1-1-1.5-4.1-5-2.6l-36.8 14.4q-0.5 0.2-0.2-0.4 26.4-45.3 52.6-87.6 2-3.2-1.2-5.2-0.1-0.1-0.2-0.1-3.4-1.8-5.3 1.2-12.5 19.8-27 44.3-22.1 37.2-30.4 51.4 0 0.1-0.1 0.2-0.1 0.1-0.2 0.2-0.1 0.1-0.3 0.1-0.1 0.1-0.2 0.1l-9.5 1.6"/>
			<path class="s2" d="m265.6 691.8q12.8-8.2 27.2-13 0.2 0 0.4-0.1 0.2-0.2 0.4-0.3 0.2-0.2 0.3-0.3 0.2-0.2 0.3-0.4c19.7-39.3 32.5-65.7 50.8-96.8q1.9-3.3 5.2-1.1 0.1 0 0.1 0.1 3.2 2.3 1.3 5.6-13.3 22.6-24.2 43.7-8.2 15.9-23.2 45.8 0 0.1 0 0.1 0 0.1 0 0.2 0.1 0.1 0.2 0.1 0 0 0.1 0 13.3-3.2 30.5-5.1 3.1-0.3 4 2.6 0.4 1.2 0.4 1.4-0.1 0.7-0.4 1.4-0.4 0.7-0.9 1.2-0.5 0.5-1.2 0.8-0.7 0.3-1.4 0.4-18.9 1.8-35.7 6.7-0.6 0.2-0.9 0.7l-25.8 52.3q-1.2 2.4-3.9 2-0.8-0.1-1.1-0.2-3.7-1.8-2-5.4l22.2-45.1q0.1-0.4-0.2-0.3-7.5 3.4-11.6 5.5-7.4 3.7-16.3 11.1-7.9 6.6-12.4 13.7c-4.7 7.6-7.8 16.8-5.7 25.5q1.9 7.9 9.2 12.9c5.7 4 13.8 5.5 20.5 5.4q35.8-0.5 68.7-16.1 22.2-10.5 40.5-24.6 29.5-22.6 50.7-53.8 5.8-8.6 10.2-16.9 5.1-9.6 8.6-17.9 6.2-14.5 9.2-30 2.1-11 2.4-19.3c0.6-15.1-3.8-31.9-13.7-42.9q-12.4-14-31.6-19.3-9.4-2.7-18.2-3.6-22.1-2.4-43.6-0.4-39.4 3.7-76.3 18.7"/>
			<path class="s1" d="m947.8 703.5q-12-1.6-20-11-6.3-7.4-12.2-16.6-0.1-0.2-0.2-0.3-0.2-0.1-0.4-0.1-0.2 0.1-0.3 0.1-0.2 0.1-0.3 0.3l-14.8 25.7q-1.7 2.9-4.8 2-0.3 0-0.3 0-3.7-2.3-1.9-5.5l13.8-24.2q0.1-0.1 0.1-0.1 0-0.1-0.1-0.2 0 0-0.1-0.1-0.1 0-0.1 0-33.9 5.8-66.3 13.8-0.9 0.2-1.2 1.1-1.1 4.4-4.5 8.1-11.2 12-28.8 17.6-4.5 1.5-10.1 1.7c-6.7 0.3-12.8-2.4-12.1-10.1q0.2-1.5 1.2-3.1 1.4-2.2 2.1-2.8 2.7-2.6 7.4-5.2 7-3.8 15.9-6.8 5-1.6 14.9-4.7 2.3-0.8-0.1-1.4-12.4-3.1-19.4-4.8-2.1-0.6-6.9-3.3-0.4-0.3-0.8 0-22.2 13.4-45.7 24.4-4.4 2-11.3 4.3c-9.5 3.1-19.4 1.9-20-10.4q-0.2-4.1 0.6-7.7 0.4-1.6-0.8-0.4-8.3 7.6-17.7 13.3-2.3 1.4-6.9 3.1"/>
			<path class="s1" d="m706.9 684.4q10-8.2 18.8-16.9 0.1-0.2 0.2-0.4 0.1-0.2 0-0.4 0-0.3-0.1-0.5-0.2-0.2-0.4-0.3-7.4-4-15.3-0.9-13 5.2-20.2 18.7-1.7 3.2-2.2 7.1c-0.6 5.5 5.5 3 8.3 1.5q4.9-2.9 10.9-7.9z"/>
			<path class="s0" d="m1034.9 684.4q9.9-8.2 18.6-16.9 0.2-0.1 0.3-0.4 0.1-0.2 0-0.4 0-0.2-0.1-0.4-0.2-0.2-0.4-0.3-7.4-4.1-15.3-1-13 5.2-20.2 18.7-1.6 3.2-2.1 7.1c-0.7 5.5 5.5 3 8.2 1.4q4.9-2.8 11-7.8z"/>
			<path class="s1" d="m810.3 696.2q-12.2 4.1-17.5 8.3-1.2 1-1.6 2.2-0.2 0.5 0.3 0.7 3.9 1 8.1-0.1 12.9-3.3 23.6-11.3 2.8-2.1 5-4.6 0.2-0.3 0.2-0.7 0 0-0.1-0.1 0-0.1-0.1-0.1 0-0.1-0.1-0.1-0.1 0-0.2 0-8.8 2.9-17.6 5.8z"/>
			<path class="s1" d="m1280 1279.5q-0.3 0.2-0.4 0.5"/>
			<path class="s8" d="m794.8 772q0-3-1.2-5.7c-0.7-1.8-1.8-3.5-3.2-4.8q-2.1-2.1-4.8-3.3c-1.8-0.7-3.7-1.1-5.7-1.1-2 0-3.9 0.4-5.7 1.1q-2.7 1.2-4.8 3.3c-1.4 1.3-2.5 3-3.2 4.8q-1.2 2.7-1.2 5.7c0 1.9 0.4 3.8 1.2 5.6 0.7 1.8 1.8 3.5 3.2 4.9 1.4 1.3 3 2.4 4.8 3.2 1.8 0.7 3.7 1.1 5.7 1.1 2 0 3.9-0.4 5.7-1.1 1.8-0.8 3.4-1.9 4.8-3.2 1.4-1.4 2.5-3.1 3.2-4.9 0.8-1.8 1.2-3.7 1.2-5.6z"/>
			<path class="s8" d="m712.9 759q0-0.3-0.2-0.7-0.1-0.3-0.4-0.6-0.2-0.2-0.6-0.4-0.3-0.1-0.7-0.1h-0.2q-0.3 0-0.7 0.1-0.3 0.2-0.6 0.4-0.2 0.3-0.4 0.6-0.1 0.4-0.1 0.7v25.8q0 0.3 0.1 0.7 0.2 0.3 0.4 0.6 0.3 0.2 0.6 0.4 0.4 0.1 0.7 0.1h0.2q0.4 0 0.7-0.1 0.4-0.2 0.6-0.4 0.3-0.3 0.4-0.6 0.2-0.4 0.2-0.7z"/>
			<path class="s8" d="m860.5 767.1c-1.8-2.1-1.1-4.7 1.4-5.7q2.8-1.2 5 1.8 0.2 0.4 0.7 0.5 1.1 0.2 2.1-0.8 0.7-0.7 0.4-1.6c-0.6-1.9-1.7-2.3-3.5-3.2-4.4-2.1-8.8-0.4-10.6 4.1q-1.5 3.9 1.5 7.4 1.1 1.3 3.4 2.2c2.7 1.1 6 2.2 6.3 5q0.3 3.9-2.9 5.5c-2.9 1.5-5-0.3-7-2.3q-0.2-0.2-0.4-0.3-0.3-0.2-0.6-0.2-0.3-0.1-0.6 0-0.2 0-0.5 0.2-1.5 0.7-0.9 2.8 0.5 1.7 3.6 3.1 6.6 3.2 10.5-1.3 2.7-3 2.8-6.8 0.1-4.1-3.9-7-1.5-1.2-4.4-2.1-1.8-0.5-2.4-1.3z"/>
			<path class="s8" d="m642.8 761.4l-0.1 20.9q0 0.1 0.1 0.2 0 0.1 0.1 0.1 0 0.1 0.1 0.1 0.1 0.1 0.2 0.1h2.9c1.5 0 2.9-0.3 4.3-0.8 1.3-0.6 2.6-1.4 3.6-2.4 1.1-1 1.9-2.2 2.5-3.5 0.5-1.3 0.8-2.7 0.8-4.1v-0.2c0-1.4-0.3-2.8-0.8-4.1-0.6-1.4-1.4-2.5-2.5-3.5q-1.5-1.5-3.6-2.4c-1.3-0.5-2.8-0.8-4.3-0.8h-2.9q-0.1 0-0.2 0 0 0-0.1 0.1-0.1 0.1-0.1 0.2 0 0 0 0.1z"/>
			<path class="s8" d="m790.7 771.9q0-2.1-0.9-4.2c-0.5-1.3-1.3-2.5-2.3-3.5-1-1-2.2-1.8-3.5-2.3-1.3-0.6-2.7-0.8-4.1-0.8-1.5 0-2.9 0.2-4.2 0.8-1.3 0.5-2.5 1.3-3.5 2.3-1 1-1.8 2.2-2.3 3.5q-0.9 2.1-0.9 4.2c0 1.4 0.3 2.8 0.9 4.1 0.5 1.3 1.3 2.5 2.3 3.5 1 1 2.2 1.8 3.5 2.4 1.3 0.5 2.7 0.8 4.2 0.8 1.4 0 2.8-0.3 4.1-0.8 1.3-0.6 2.5-1.4 3.5-2.4 1-1 1.8-2.2 2.3-3.5 0.6-1.3 0.9-2.7 0.9-4.1z"/>
		</g>
		<path class="s9" d="m1280-18v4.8h-160-128-437.8-554.2v-4.8z"/>
		<path fill-rule="evenodd" class="s10" d="m2044.4 484.4q24.1 16.4 48.2 33.3 7.1 5 12.4 9.5 2 1.8 3.1 3.3 0.4 0.5 0.6 1.1 0.2 0.5 0.3 1 0 0.5-0.2 0.8-0.2 0.3-0.5 0.4-11.2 2.6-13.3 3.2c-7.6 2.2-16.6 2.7-24.3 4.5q-8.3 2.1-15.3 4.8c-3.2 1.2-6.4 3.4-8.2 6q-5.4 7.9-8.7 11.7-7 8.1-17.6 11.6-13.7 4.5-14.5 4.8-5.3 1.7-6.9 3.1-6 5-8 6-2.5 1.1-13.2 3.9-2.2 0.6-3.8 1.4-10.7 5.4-19.6 10.9c-3.1 1.9-6.5 3.4-9.6 5.1-1.1 0.6-2.5 2-2.6 3.4-0.4 4.8-0.6 8.9-3.1 11-8.4 7.1-15.1 16.5-22 23.9-8.2 8.6-14.9 20.1-19.6 31.4q-2.4 5.8-2.7 8.5-0.9 7.9-1.4 11.2-0.7 4.8-2.3 10.3-2.2 7.3-3.5 15.3-1.5 8.6-1.3 12.3c0.2 6.1 2.2 15.9 2.4 22.2q0.3 11.3-2.8 20.1-3.9 11.3-4.2 15.6-0.8 8.8-0.6 16.4c0.3 18.1-11.9 17.7-25.7 17q-11.8-0.5-17 8.1c-1.6 2.6-1.8 6.6-2.1 10.4q-0.1 1-0.9 3.6-12.8-7.2-16-8.8-15.7-7.5-31.1-13.6-8.1-3.3-17.6-6.2-13-3.9-17.2-5-35.1-9-65.2-6.4-5.4 0.4-12 2.1-8.3 2-11.3 3.1-12.2 4.2-21.3 13.8c-7.1 7.6-11.1 19.7-9.5 34.8q1.4 12.3 8.6 28 1.8 3.7 5.4 4.5 0 0.1 0.1 0 2.8-0.6 0.9-4.9-7.7-17.5-7.2-30.2 0.5-14.2 8.6-23.6 4.3-5 11.5-9.4c3.1-1.9 6.3-2.5 9.3-3.9q2.8-1.3 7.4-2.4 10.9-2.5 20.6-2.9 29.3-1.4 63.9 8.7-7.4 13.9-5.8 34.4c0.8 10.6 1.7 16.8 1 23.6q-0.5 4.9-1.7 9.3-2.7 10-5.1 25.1-0.7 5-2.2 11.4c-1.9 8.1-1.2 16.6 0.1 28.6q0.7 5.7 0.4 13.6-9.4 0.2-16.3 2-11.7 3-15.4 16.4c-4.2 15.1 6.6 38.7 24.8 54.7q7.6 6.7 13.1 10.3 21.2 13.8 42.6 22.5 33.5 13.7 64.9 13-2.2 6.9-2.2 11.4c-0.1 11.3 0 22.7-2.3 32.2-3 12.4-5.3 20.8-6.8 32.2-1 7.7-2.1 17.3-3.9 25.6q-0.5 2.4-2.5 12.5-1.4 7.5-1.4 11 0.1 15.1-0.1 19.7-0.5 11.9-1.9 16.9-2.9 10.1-3.4 13.3-1 5.9 0.9 12.5 2.7 9 5.9 20 2.4 8.3 4.3 20.6 1.3 8.8 3.8 31.2 0.6 5.4 4.4 22.4c3.6 16.1 1.8 29.8 9.7 47.1 8.5 18.7 19.3 34.9 33.4 56.2q5.4 8 17.4 28.8 4.8 8.4 6.5 12.1c8.4 18.9 16.6 36.6 28.6 54.8q7.7 11.8 17.9 25.8 4.6 6.4 8.4 10.5 6.8 7.5 14.3 15.7 14.1 15.4 27.8 36.3 6.7 10.2 31.4 46.9c7.9 11.8 16.3 23.9 25.9 34.6 3.9 4.5 9.2 11.7 12.9 16q2.8 3.3 5.4 5.7 11.3 10.8 21.2 21.5 8.7 9.5 13.8 18.9c3.6 6.7 1.6 9.5-1.9 11.4l-651.7-434.9v-1275.2z"/>
		<path class="s11" d="m2068-53.2q-15.9 1.2-31.8 2.3-7 0.5-11 2-6 2.3-8.9 6.5-12.3 17.4-26.6 30.2-7 6.2-15.4 12.8-13.3 10.5-29.5 19-11.2 5.8-18.5 14.7c-3.5 4.2-7.9 10-12.5 14.8-9.5 10.1-17.1 18.1-23.4 27.7-5.3 7.9-10.9 18.8-16 26.2-8.9 12.9-18.7 24.7-28.3 35.7-4 4.6-7.1 8.7-9.6 13.7q-3.7 7.4-7.1 17.1-1.3 3.7-4.2 15.2-2.8 10.9-4.7 15.1-4.6 10.3-9.3 20.5-1.4 2.9-10.2 27.4-2 5.5-4.4 11.2c-3.8 8.9-6.8 15.7-7.9 23.2q-1.5 9.5-3 19-2 12.9-9.3 23.4-8 11.4-10.3 14.9-7.4 11.4-10 25.6-1 5.2-1.9 14c-0.6 6.9-1.7 12.6-3.8 18.1-2 5.4-5.4 12.4-7.3 18.1-3.1 9.6-3.7 21-7.3 30.3-2.8 7.7-7.4 18-10.6 26.9-3.1 8.8-5.5 14.7-6.9 22.1q-0.5 2.9-2.4 16.8-2.4 17.7-10.5 36.4c-2.7 6.3-6.8 11.8-10 17.8q-3.8 7.1-4.6 13.4-1.2 8.9-2.8 17.9-13.5 8.6-24.6 18.7-1.6 1.5-0.5-0.4l7.1-13.1q1.6-3-1.2-4.9l-0.2-0.1q-3-2.1-5.2 1-2.4 3.4-3.9 6.4c-1.2 2.5-2.6 3.2-5.1 4.5q-25.5 12.7-42.2 19.7-5.2 2.2-15.6 6.2-7.1 2.8-13.7 3.2-0.3 0-0.5-0.1-0.3-0.1-0.5-0.3-0.2-0.2-0.3-0.5-0.2-0.2-0.2-0.5 0-4 1.7-8 4.9-11.9 11.1-21.5 1.4-2.1 1.5-3.1 0.1-2.1-2.2-3.4-2.7-1.5-5 0.8-16.1 15.5-33.1 28.5-4.5 3.4-10.5 6.4-2.7 1.3-5.4 1.6-0.2 0-0.3 0-0.2-0.1-0.3-0.2-0.1-0.1-0.2-0.2 0-0.1 0-0.3-0.3-1.8 0.6-4.1 1.4-3.6 5.1-9.5 3.4-5.4 11.6-18.2 2.1-3.1-1-5.1-0.1-0.1-0.2-0.1-3.1-2-5.3 0.9-7.6 10.5-12.3 18.9-3.9 6.8-5.6 13c-1.2 4.4-1.4 9 2.6 11.5 4.1 2.6 11.1 0.4 15.1-1.8q12.7-6.9 25.4-18.3 2-1.7 1.1 0.7-0.4 1.2-1 3.4c-1.6 4.8-2.3 12.4 2.5 15.6 2.6 1.8 6.7 1.9 9.6 1.3q9.2-2 19.5-6 21.8-8.4 44.1-19.9 0.8-0.4 0.4 0.5l-10.5 21.4q-0.3 0.4-0.1 0.9 0.6 2.8 2.6 3.5 2.9 1 4.8-1.6 9.6-12.9 18.8-20.9 11.8-10.3 22.7-17.6 0.6-0.4 0.5 0.3-1 9 5.6 14.5c3.2 2.7 8.8 4.4 13 4.9q7.9 1.1 15.5 0.3 13.6-1.5 16.6-1.9 9.1-1.4 18.1-4 1.6-0.5 0.8 0.9c-2.9 4.7-5 11.3-3.1 16.5q2.3 6 10 5.9 2.2-0.1 5.5-0.9-0.7 8.6-2.2 14.3c-2.6 9.3-9.5 17.3-15.2 25.4q-4.5 6.6-7.3 14-5.4 14.6 6.7 24.1c7.6 6 12.8 9.3 15.6 15.9q0.9 2.1 5.3 12.2 2.9 6.7 5.8 10.1 8.1 9.6 10 12.6c4.6 6.8 7.3 13 10.4 19.9 4.9 11.3 12.3 21.2 21.3 29.9q4.4 4.3 13.5 11.9c2.9 2.4 6.3 5.5 7.9 8 2.6 4 5.3 8.9 9.2 12.7q10.2 9.9 26.2 27 4.5 4.8 6.8 6.9c5 4.7 12.8 11.2 17.5 17.5q3.8 5.1 10.8 16.5 6.1 10 13.6 18.1 2.9 3 9.8 8.2 7.9 5.9 16.3 14.2c8.6 8.6 14.6 14.6 19.8 19.1 5.7 5 12.8 9.3 18.5 15.1q8.5 8.7 19.9 21.5 8.9 10.1 11.6 14.5 4.4 7.4 8.8 14.7 4.8 7.8 15.5 18.7 3.4 3.5 10.4 9.1c9.7 7.9 18.9 16.4 27.6 26.4q5.2 6 15.9 19.1 5.3 6.4 9.4 10.1c6 5.6 18.3 13.9 25.2 21.8q4.4 5 12.8 14.9 3.3 3.9 11.8 12.5 8.4 8.4 16.4 16.2 4 4 8.1 8.5 5.6 6.3 7.3 7.9 5.8 5.5 16.1 10.3h-492.8c3.4-4.2 5.4-8.4 1.8-12.6q-5-6-13.6-9.7-9.6-4.1-20.8-7.3-2.5-0.8-5.3-2.2c-3.5-1.8-8.8-5.5-12.6-7.3-9.4-4.4-17.6-10.8-25.5-17.4q-24.2-20.2-30.8-25.9-13.4-11.8-27.3-17.8-7.4-3.2-14-6.1-3.7-1.6-8.3-4.9-10-7.2-17.6-13.9c-11.7-10.2-19.7-22.4-28-35.7q-1.7-2.6-6.4-7.7-11.8-12.9-17.1-17.3c-13.9-11.8-24.5-20.8-32.8-33.8-7.8-12.1-5.9-27-9.5-40.8q-3.7-14.4-4.3-19.4-2.4-20.7-3.8-28.6-1.9-11-4.2-17.7-3.1-8.9-5.7-16.2-1.9-5.2-1-11.8 0.5-3.6 3.3-15.6 1.4-5.9 1.9-18.2 0.2-4.7 0.1-19.8 0-3.4 1.4-11.9 1.9-11.4 2.5-14.2c1.8-9.4 2.8-19.7 3.8-28.2 1.5-12.3 3.8-22.3 6.7-36.6 2.2-11 2.1-22.4 2.2-33.8q0.1-4.6 2.2-12.9 15-10.4 28.2-23.2 12.9-12.7 21.9-23.9 13.4-16.7 25.2-39.9 4.4-8.7 7.9-18.4 4.1-11.8 6.3-21.2 3.2-13.7 3-28.1 0-5.9-1.1-12-1.4-8.1-2.7-11.7c-3.1-8.8-8.6-17.9-15.5-24.4q-10.1-9.5-22.5-14.3-18.1-7-37.7-8-20.4-0.9-40.8 1.4 0.8-3.2 0.9-4.2c0.3-4 0.5-8.1 2-11.8q5.2-12.1 16.7-19.4c13.5-8.5 25.6-16.2 25.2-34.2q-0.1-7.4 0.6-16.8 0.4-4.5 4.2-18.4 3-10.8 2.7-21.9c-0.2-6.2-2.1-14.7-2.3-20.6q-0.2-3.7 1.2-13.2 1.4-8.9 3.5-17.6 1.6-6.6 2.3-11.9 0.4-3.6 1.3-12.1 0.4-3 2.7-10.4c4.6-14.3 11.2-30.3 19.2-44.4 6.8-12 13.4-25.9 21.6-38.6 2.5-3.7 2.7-8 3.1-13 0.1-1.5 1.4-3.9 2.6-5.2 3-3.7 6.3-7.5 9.4-11.5q8.7-11.4 19.2-24 1.5-1.8 3.7-3.8 10.6-10.1 13-12.8 2-2.3 7.8-11.3 1.7-2.5 6.8-7.8 0.8-0.8 14.2-14.4 10.5-10.6 17.4-23.4 3.2-6 8.5-17.4c1.8-3.9 4.9-8.2 8-11.5q7-7.5 15.1-15c7.6-7 16.4-13.5 23.8-20.8q2.1-2 13.1-12.1 0.3-0.3 0.5-0.7 0.2-0.4 0.1-0.9 0-0.5-0.2-0.9-0.2-0.4-0.6-0.6-1.1-0.8-3.1-1.2-5.1-1-12.1-1.3-23.7-0.8-47.4-1.1zm-570.4 777.5c-1.8 0.8-4.1 0.6-5.5-0.9q-0.7-0.8-1.4-1.4-0.1-0.1-0.2-0.2-0.2-0.1-0.3-0.2-0.2 0-0.3 0-0.2-0.1-0.4-0.1-2.2 0.2-2 2.4 0 0.6 0.7 1.3 2.8 2.8 5.3 3.3 4.3 0.9 7.4-1.7 2.8-2.3 3.5-6 0.8-4.7-3.5-8.2c-1.6-1.2-2.9-1.6-5.1-2.4q-2.3-0.9-2.8-2.2c-0.8-2 0.2-3.9 2.2-4.7q2.8-1 4.6 1.6 1 1.5 2.5 0.5 0.1-0.1 0.1-0.1 1.5-1.1 0.5-2.6c-3.3-4.6-9.1-4.8-12.4-0.5q-2.3 2.9-1.5 6.5 0.3 1.3 2.5 3.6 0.8 0.9 2.7 1.5c3.8 1.1 7.9 3.4 5.8 7.9q-0.8 1.9-2.4 2.6zm69.8-20.7q-0.3 6.7 0.1 11.4c0.4 3.9-0.2 7-0.6 12q-0.1 1.1 1 1.1l2.1 0.1q0.2 0 0.3 0 0.2-0.1 0.3-0.2 0.1-0.1 0.2-0.3 0-0.1 0-0.3l0.6-23.8q0.1-0.6 0.6-0.6l5.6 0.1q1.5 0.1 1.5-1.4v-1.6q0.1-1.2-1.1-1.2l-17.7 0.1q-2 0-1.9 1.8 0 0 0 0.1-0.1 1.8 1.7 1.9l6.7 0.2q0.2 0 0.3 0 0.1 0.1 0.2 0.2 0 0.1 0.1 0.2 0 0.1 0 0.2zm85 19.2q-4.7 4-8.8 0.5-1.8-1.5-2.1-4.2-0.3-3.1-0.3-4.8 0-4.8 0.1-13.6 0-1.5-1.5-1.3l-0.9 0.2q-1.6 0.2-1.7 1.8 0 4.9 0 14.3 0.1 4.7 1.1 6.9c2.5 5.3 9.1 7.6 14.3 4.9q5.4-2.8 5.7-9.3 0.3-8.1 0.1-17.7 0-0.2-0.1-0.5-0.1-0.2-0.3-0.4-0.2-0.2-0.4-0.3-0.2-0.1-0.5-0.1h-0.4q-1.6-0.1-1.7 1.5-0.3 4.6-0.4 16.1 0 4.1-2.2 6zm62.5-22.2l-0.1 26.4q0 0.4 0.1 0.7 0.1 0.3 0.4 0.5 0.2 0.3 0.5 0.4 0.3 0.1 0.7 0.1l5.8 0.1c2 0 3.9-0.4 5.7-1.1 1.9-0.7 3.5-1.8 4.9-3.2 1.4-1.3 2.5-3 3.3-4.7q1.2-2.7 1.2-5.7v-0.3c0-2-0.4-3.9-1.1-5.7q-1.2-2.7-3.3-4.8c-1.4-1.4-3-2.4-4.8-3.2-1.8-0.7-3.8-1.1-5.8-1.1l-5.8-0.1q-0.3 0-0.6 0.1-0.3 0.2-0.6 0.4-0.2 0.2-0.4 0.6-0.1 0.3-0.1 0.6z"/>
		<path class="s12" d="m1818-137.2q3.4 0.4 6.6 1.4 1.6 0.5 0.5 2.1-0.1 0.1-0.1 0.1-1.6 1.7-6.3 6.6-3.5 3.7-9.1 13.2c-3.9 6.7-8.4 16.6-14.9 23.7-8.1 8.7-24.1 25.1-33.6 37.2q-5.7 7.1-9 13.1c-4.3 7.7-7.9 18.4-11.7 25.9q-5.2 10.4-12.1 20.4-4.1 6-6.6 10.1c-5 8.1-8.8 13.6-14.9 20.6-1.6 1.9-3.7 4.8-5.1 7.4-3.2 6.1-6.3 12-10 17.9q-4.6 7.3-13.7 22.1-15.2 24.2-24.6 48.8-4.8 12.4-12.1 30.5c-4 10.1-6.8 19.4-10.1 30.6-3.1 10.7-7.2 20.7-11.2 30.1-4.3 10.2-6.7 18.6-9.3 29.7-2.5 11.1-5.6 21.5-8.6 32.2-1.3 4.5-2.6 9.8-3 13.6q-0.6 5.5-1.1 11c-0.3 2.7-0.9 5.6-1.6 7.7-1.7 5-5.4 12.3-6.3 19.6q-1 8.6-2.1 16.1-1.1 8.4-1.2 12.9 0 22.4-0.9 45.3c-0.2 5.8 0.1 13.3 0.2 17.2q0.1 7.3-0.9 11.3-2.6 11.4-3 19-0.5 9.8 0.4 18.8 0.8 8 4.5 18.1 5.1 14.1 12.7 27.1-32.5 5.6-64.6 13.6-0.1 0-0.3 0-0.2 0-0.4-0.1-0.2 0-0.3-0.1-0.2-0.1-0.3-0.2c-3.6-4.1-10.2-5.9-15.6-7.2q-0.3 0-15.6-3.6-0.1 0-0.2-0.2-0.1-0.1-0.2-0.2 0-0.1 0-0.3 0.1-0.1 0.2-0.2 2.5-1.9 5.4-3 10.8-4.5 23.1-6.9 5.9-1.2 10.5-1 0.1 0 0.2 0.1 0.2 0 0.2 0.2 0.1 0.1 0.1 0.2 0 0.2-0.1 0.3-1.9 3.3-5.8 5.6c-1.6 1-2.9 2.6-2.8 4.5 0.2 2.6 3.4 3.9 5.6 2.9q4.1-2 7.4-5.5 3-3.1 3.8-7.9c0.6-3.3-1.9-5.9-4.5-7.3q-0.9-0.5-4.9-0.9-2-0.1-4.9 0.2-12.7 1.4-27 6.6c-4.9 1.7-9.4 3.7-12.5 7.1q-2.1 2.3-2.9 2.8-15.9 9.4-32.4 18-10.5 5.6-21.4 9.9c-2.4 1-9.5 3.3-11.8 1.5-2.5-2.1-1.5-7.1-0.8-9.6q2.7-9.4 7.8-18 1.4-2.3 1.3-3.7c-0.1-2.1-2.3-3.9-4.6-3.4q-1 0.2-1.4 0.2-0.5 0.1-0.9-0.2-9.2-6.8-20.2-4.2-3.5 0.8-8.9 4-4.3 2.6-8.3 5.3-1.7 1.3-3.7 1.9-3.9 1.2-3.9 1.2-3.7 1.5-8.7 2.6-11.3 2.5-22.8 4.4-8.2 1.4-21.3 0.1c-3.1-0.3-6.3-1.5-8.6-3q-3.6-2.4-3.2-6.9 0.2-2.6 0.6-3.6 3.3-7.2 3.4-7.6 0.6-1.4-0.2-2.9c-1.6-2.8-3.7-2.5-6.2-1.1q-3.6 2.1-7.2 4.2 1.6-9 2.8-17.9 0.8-6.3 4.6-13.4c3.2-6 7.3-11.5 10-17.8q8.1-18.7 10.5-36.4 1.9-13.9 2.4-16.8c1.4-7.4 3.8-13.3 6.9-22.1 3.2-8.9 7.8-19.2 10.6-26.9 3.6-9.3 4.2-20.8 7.3-30.3 1.9-5.7 5.3-12.8 7.3-18.1 2.1-5.5 3.2-11.2 3.8-18.1q0.9-8.8 1.9-14.1 2.6-14.1 10-25.5 2.3-3.5 10.3-14.9 7.3-10.5 9.3-23.4 1.5-9.5 3-19c1.1-7.5 4-14.3 7.9-23.2q2.4-5.7 4.4-11.2 8.8-24.5 10.2-27.4 4.7-10.2 9.3-20.5 1.9-4.2 4.7-15.1 2.9-11.5 4.2-15.2 3.4-9.7 7.1-17.1c2.5-5 5.6-9.1 9.6-13.7 9.6-11 19.4-22.8 28.3-35.7 5.1-7.4 10.7-18.3 16-26.2 6.3-9.6 13.9-17.6 23.4-27.7 4.6-4.8 9-10.6 12.5-14.8q7.3-8.9 18.5-14.7 16.2-8.5 29.5-19 8.4-6.6 15.4-12.9 14.3-12.7 26.6-30.1 2.9-4.2 8.9-6.5 4-1.5 11-2 15.9-1.1 31.8-2.3z"/>
		<path class="s13" d="m1865-54.2v1196.5q-0.5 4.9-1.1 9.9-0.5 4.5-1.8 5.8-1.6 1.6-3.3 0.7-6.2-3.4-9.2-4.8-5.2-2.5-9-5.1c-2.9-2.1-8.6-5.1-11.6-8.2-2.9-2.9-5.2-7-8.7-9.4-7.4-5.1-14.3-10.4-22-15.3q-8.2-5.3-9-5.8-5.1-3.3-7.2-5.5c-3.2-3.5-6.4-6.8-10-9.8q-7.8-6.5-11.6-10.8-7.4-8.3-14.3-13.9-2.9-2.3-6-5.9-9.6-11-17.7-21.5-0.7-0.9-11.4-14.1-14.6-18-23.6-39.1-0.7-1.8-7.3-13.8-4.7-8.5-7.3-13.9-6.9-14.1-14.4-25.6c-3-4.7-6.1-10.9-7.6-15q-4.5-12.5-6.8-16.6-2.8-4.9-5.5-9.9c-4.2-7.6-7.9-16.3-11.4-23.6-8.1-16.9-18.1-32.3-24.2-49.5q-5.3-14.9-12.1-38-3.1-10.6-7.2-17.1c-4-6.1-8.5-12.4-11.3-18.5q-5.8-12.9-7.9-26.9c-1.9-11.8 0-24.6-6.6-35.3-2.3-3.7-7.8-8.3-9.9-10.8-4.6-5.3-4.2-11-4.4-18.3-0.1-3.7-1.8-6.5-4.9-8.3q-1.1-0.7-2.2-1.4-0.6-0.4-0.6-0.8-0.1-0.6 0.5-1 0.4-0.4-0.1-0.4l-3.5-0.3q11.7 0.1 21.8-3.2 18.8-6 37-17 1.2-0.7 2.2-1 0.1 0 0.2 0.1 0.1 0 0.2 0.1 0 0.1 0.1 0.2 0 0.1-0.1 0.2c-3.4 6.8-2.6 17.7 7.3 18.1q4.3 0.2 7.2-0.8c9.3-3.5 17-9.6 24.7-16.6q1.2-1.1 0.8 0.5-0.9 3.9-0.6 8.5c0.3 7.3 5 11.3 12 11.2q3.3-0.1 5.2-0.7 13.3-4.1 27-11.3 17.9-9.4 36.1-20.2 2.7-1.6 1.8-4.8 0 0-0.1-0.1-2.4-3.7-5.8-1.8-13 7.7-31 17.4-16.2 8.8-28.7 12.7c-2 0.7-7.7 1.9-8.5-1.4-1-4.1 0.2-8.7 1.8-12.7q3.4-8.6 6.6-13.6 1.4-2.2 1.1-3.8c-0.5-2.4-2.3-3.6-4.7-3.1-1.3 0.3-1.7 0.5-2.9-0.4q-8.4-6-18.4-4-7.7 1.5-14.7 6.7-4 3-8.2 5.5-19.5 11.7-32.5 17.9-4.1 1.9-8.4 3.6c-6.4 2.6-13.6 4.7-20.7 5.5q-6.2 0.7-9.6-0.2c-7.1-1.8-12.7-7.7-16.9-13.5q-3.9-5.4-7.9-11-0.1-0.1-0.1-0.2 0-0.1 0-0.1 0-0.1 0.1-0.2 0 0 0.1-0.1l41.9-16.2q2.7-1.1 2.6-4.1-0.1-0.8-0.1-1-1.5-4.1-5-2.6l-36.8 14.4q-0.5 0.2-0.2-0.3 26.4-45.4 52.6-87.7 2-3.2-1.2-5.2-0.1-0.1-0.2-0.1-3.4-1.8-5.3 1.2-12.5 19.8-27 44.3-22.1 37.2-30.4 51.4 0 0.1-0.1 0.2-0.1 0.1-0.2 0.2-0.1 0.1-0.3 0.1-0.1 0.1-0.2 0.1l-9.6 1.6q-7.6-13-12.7-27.1-3.7-10.1-4.5-18.1-0.9-9-0.4-18.8 0.4-7.6 3-19 1-4 0.9-11.3c-0.1-3.9-0.4-11.4-0.2-17.2q0.9-22.9 0.9-45.3 0.1-4.4 1.2-12.9 1.1-7.5 2.1-16.1c0.9-7.3 4.6-14.6 6.3-19.6 0.7-2.1 1.3-5 1.6-7.7q0.5-5.5 1.1-11c0.4-3.8 1.7-9.1 3-13.6 3-10.7 6.1-21.1 8.6-32.2 2.6-11.1 5-19.5 9.3-29.7 4-9.4 8.1-19.4 11.2-30.1 3.3-11.2 6.1-20.5 10.1-30.6q7.3-18.1 12.1-30.5 9.4-24.6 24.6-48.8 9.1-14.7 13.7-22.1c3.7-5.9 6.8-11.8 10-17.8 1.4-2.7 3.5-5.6 5.1-7.5 6.1-7 9.9-12.5 14.9-20.6q2.5-4.1 6.6-10.1 6.9-10 12.1-20.4c3.8-7.5 7.4-18.2 11.7-25.9q3.3-6 9-13.1c9.5-12.1 25.5-28.4 33.6-37.2 6.5-7.1 11-17 14.9-23.6q5.6-9.6 9.1-13.3 4.7-4.9 6.3-6.5 0-0.1 0-0.1 0 0 0.1-0.1 1.1-1.6-0.5-2.1-3.2-1-6.6-1.4z"/>
		<path class="s9" d="m377.3 734.7q-30.9 21.7-63.7 30.4-21.1 5.5-41.9 5.8-5.3 0.1-12.8-1.5c-17.9-3.9-28.6-20.2-24.4-38.2q3.7-15.8 15.1-26.6 6.8-6.4 16-12.8 12.8-8.2 27.2-13 0.2 0 0.4-0.1 0.2-0.2 0.4-0.3 0.2-0.2 0.3-0.3 0.2-0.2 0.3-0.4c19.7-39.3 32.5-65.7 50.8-96.8q1.9-3.3 5.2-1.1 0.1 0 0.1 0.1 3.2 2.3 1.3 5.6-13.3 22.6-24.2 43.7-8.2 15.9-23.2 45.8 0 0.1 0 0.1 0 0.1 0 0.2 0.1 0.1 0.2 0.1 0 0 0.1 0 13.3-3.2 30.5-5.1 3.1-0.3 4 2.6 0.4 1.2 0.4 1.3-0.1 0.8-0.4 1.5-0.4 0.7-0.9 1.2-0.5 0.5-1.2 0.8-0.7 0.3-1.4 0.4-18.9 1.8-35.7 6.7-0.6 0.2-0.9 0.7l-25.8 52.2q-1.2 2.5-3.9 2.1-0.8-0.1-1.1-0.2-3.7-1.9-2-5.4l22.2-45.2q0.1-0.3-0.2-0.2-7.5 3.4-11.5 5.5-7.5 3.7-16.4 11.1-7.9 6.6-12.4 13.7c-4.7 7.6-7.7 16.7-5.7 25.5q1.9 7.9 9.2 12.9c5.7 4 13.8 5.5 20.5 5.4q35.8-0.5 68.7-16.2 22.2-10.5 40.5-24.5 29.5-22.6 50.7-53.8 5.8-8.6 10.2-16.9 5.1-9.6 8.6-17.9 6.2-14.5 9.2-30 2.1-11 2.4-19.3c0.6-15.1-3.8-31.9-13.7-42.9q-12.4-14-31.6-19.3-9.4-2.7-18.2-3.6-22.1-2.4-43.6-0.4-39.4 3.7-76.3 18.7-34 13.1-62.7 33.9-9.6 7-20.3 16.8-4.5 4-7.2 7.2c-3 3.5-6.1 6.2-9.2 10.2q-7 9.2-11.3 17.1-7.9 14.7-8.4 29.2-0.5 13.1 7.1 25.5 1.8 3-1 5.5 0 0.1-0.1 0.1-3.5 1.6-5.2-1-7.1-10.8-8.5-22.3c-1.6-14 2.4-28.8 9.3-41q9-15.8 20.9-28.1 3.1-3.1 11.2-10.7 6.5-6 11.7-10 29.6-22.7 64.1-37.2 4.1-1.7 16.9-6.4 9.3-3.4 17.2-5.6 15.1-4.1 30.5-7 3.3-0.7 15.8-2 20.4-2.3 40.8-1.4 19.6 1 37.7 8 12.4 4.8 22.5 14.3c6.9 6.5 12.4 15.6 15.5 24.4q1.3 3.6 2.7 11.7 1.1 6.1 1.1 12 0.2 14.4-3 28.1-2.2 9.4-6.3 21.2-3.5 9.7-7.9 18.4-11.7 23.2-25.2 39.9-9 11.2-21.9 23.9-13.2 12.8-28.2 23.2z"/>
		<path class="s11" d="m1594.6 292.8q0.3-8.2-0.3-13.5c-1.3-11.1-2-19.1-0.2-28.4q1.5-7.4 2.2-12.9 2.3-16.7 5-28.5 1.2-5.2 1.7-10.5c0.7-7.3-0.2-12.8-1-22.9q-1.5-19.5 5.7-38.3 36.9-15 76.3-18.7 21.5-2 43.6 0.4 8.8 0.9 18.2 3.6 19.2 5.3 31.7 19.3c9.8 11 14.2 27.8 13.6 42.9q-0.3 8.3-2.4 19.3-3 15.5-9.2 30-3.5 8.3-8.6 17.9-4.4 8.3-10.2 16.9-21.2 31.2-50.7 53.8-18.3 14-40.5 24.5-32.9 15.7-68.7 16.2c-6.7 0.1-14.8-1.4-20.5-5.4q-7.3-5-9.2-12.9c-2-8.7 1-17.9 5.8-25.5q4.4-7.1 12.3-13.7 8.9-7.4 16.4-11.1 4-2.1 11.5-5.5 0.3-0.1 0.2 0.2l-22.1 45.2q-1.8 3.5 2 5.4 0.2 0.1 1 0.2 2.7 0.4 3.9-2.1l25.8-52.2q0.3-0.6 0.9-0.7 16.9-4.9 35.7-6.7 0.7-0.1 1.4-0.4 0.7-0.3 1.2-0.8 0.5-0.5 0.9-1.2 0.3-0.7 0.4-1.5 0-0.1-0.4-1.3-0.9-2.9-4-2.6-17.2 1.8-30.5 5.1-0.1 0-0.1 0-0.1 0-0.2-0.1 0-0.1 0-0.2 0 0 0-0.1 15-29.9 23.3-45.8 10.8-21.1 24.1-43.7 1.9-3.3-1.3-5.6 0-0.1-0.1-0.1-3.3-2.2-5.2 1.1c-18.3 31.1-31 57.5-50.8 96.8q-0.1 0.2-0.3 0.4-0.1 0.1-0.3 0.3-0.2 0.1-0.4 0.3-0.2 0.1-0.4 0.1-14.4 4.8-27.2 13z"/>
		<path class="s9" d="m947.8 703.5q-12-1.6-20-11-6.3-7.4-12.2-16.6-0.1-0.2-0.2-0.3-0.2-0.1-0.4-0.1-0.2 0.1-0.3 0.1-0.2 0.1-0.3 0.3l-14.8 25.7q-1.7 2.9-4.8 2-0.3 0-0.3 0-3.7-2.3-1.9-5.5l13.8-24.2q0.1-0.1 0.1-0.1 0-0.1-0.1-0.2 0 0-0.1-0.1-0.1 0-0.1 0-33.9 5.8-66.3 13.8-0.9 0.2-1.2 1.1-1.1 4.4-4.5 8.1-11.2 12-28.8 17.6-4.5 1.5-10.1 1.7c-6.7 0.3-12.8-2.4-12.1-10.1q0.2-1.5 1.2-3.1 1.4-2.2 2.1-2.8 2.7-2.6 7.4-5.2 7-3.8 15.9-6.8 5-1.6 14.9-4.7 2.3-0.8-0.1-1.4-12.4-3.1-19.4-4.8-2.1-0.6-6.9-3.3-0.4-0.3-0.8 0-22.2 13.4-45.7 24.4-4.4 2-11.3 4.3c-9.5 3.1-19.4 1.9-20-10.4q-0.2-4.1 0.6-7.7 0.4-1.6-0.8-0.4-8.3 7.6-17.7 13.3-2.3 1.4-6.9 3.1-3.3 0.8-5.5 0.9-7.7 0.1-10-5.9c-1.9-5.2 0.2-11.8 3.1-16.5q0.8-1.4-0.8-0.9-9 2.6-18.1 4-3 0.4-16.6 1.9-7.6 0.8-15.5-0.3c-4.2-0.5-9.8-2.2-13-4.9q-6.6-5.5-5.6-14.5 0.1-0.7-0.5-0.3-10.9 7.3-22.7 17.6-9.2 8-18.8 20.9-1.9 2.6-4.8 1.6-2-0.7-2.6-3.5-0.2-0.5 0.1-0.9l10.5-21.4q0.4-0.9-0.4-0.5-22.3 11.5-44.1 19.9-10.3 4-19.5 6c-2.9 0.6-7 0.5-9.6-1.3-4.8-3.2-4.1-10.8-2.5-15.6q0.6-2.2 1.1-3.4 0.8-2.4-1.2-0.7-12.7 11.4-25.4 18.3c-4 2.2-11 4.4-15.1 1.8-4-2.5-3.8-7.1-2.6-11.5q1.7-6.2 5.6-13 4.7-8.4 12.3-18.9 2.2-2.9 5.3-0.9 0.1 0 0.2 0 3.1 2.1 1.1 5.2-8.3 12.8-11.7 18.2-3.7 5.9-5.1 9.5-0.9 2.3-0.6 4.1 0 0.2 0 0.3 0.1 0.1 0.2 0.2 0.1 0.1 0.3 0.2 0.1 0 0.3 0 2.7-0.3 5.4-1.6 6-3 10.5-6.4 17-13 33.1-28.5 2.3-2.3 5-0.8 2.3 1.3 2.2 3.4-0.1 1-1.5 3.1-6.2 9.6-11.1 21.5-1.7 4-1.7 8 0 0.3 0.2 0.5 0.1 0.3 0.3 0.5 0.2 0.2 0.5 0.3 0.2 0.1 0.5 0.1 6.6-0.4 13.7-3.2 10.4-4 15.6-6.2 16.7-7 42.2-19.7c2.5-1.3 3.9-2 5.1-4.5q1.5-3 3.9-6.4 2.2-3.1 5.2-1l0.2 0.1q2.9 1.9 1.2 4.9l-7.1 13.1q-1.1 1.9 0.5 0.4 11.1-10.1 24.6-18.7 3.6-2.1 7.2-4.2c2.5-1.4 4.6-1.7 6.2 1.1q0.8 1.5 0.2 2.9-0.1 0.4-3.4 7.6-0.4 1-0.6 3.6-0.4 4.5 3.2 6.9c2.3 1.5 5.5 2.7 8.6 3q13.1 1.3 21.3-0.1 11.5-1.9 22.8-4.4 5-1.1 8.7-2.6 0 0 3.9-1.2 2-0.6 3.7-1.9 4-2.7 8.3-5.3 5.4-3.2 8.9-4 11-2.6 20.2 4.2 0.4 0.3 0.9 0.2 0.4 0 1.4-0.2c2.3-0.5 4.5 1.3 4.6 3.4q0.1 1.4-1.3 3.7-5.1 8.6-7.8 18c-0.7 2.5-1.7 7.5 0.9 9.6 2.2 1.8 9.3-0.5 11.7-1.5q10.9-4.3 21.4-9.9 16.5-8.6 32.4-18 0.8-0.5 2.9-2.8c3.1-3.4 7.6-5.4 12.5-7.1q14.3-5.2 27-6.6 2.9-0.3 4.9-0.2 4 0.4 4.9 0.9c2.6 1.4 5.1 4 4.5 7.3q-0.8 4.8-3.8 7.9-3.3 3.5-7.4 5.5c-2.2 1-5.4-0.3-5.6-2.9 0-1.9 1.2-3.5 2.8-4.5q3.9-2.3 5.8-5.6 0.1-0.1 0.1-0.3 0-0.1-0.1-0.2 0-0.2-0.2-0.2-0.1-0.1-0.2-0.1-4.6-0.2-10.5 1-12.3 2.4-23.1 6.9-2.9 1.1-5.4 3-0.1 0.1-0.2 0.2 0 0.2 0 0.3 0.1 0.1 0.2 0.2 0.1 0.2 0.2 0.2 15.3 3.5 15.6 3.6c5.4 1.3 12 3.1 15.6 7.2q0.1 0.1 0.3 0.2 0.1 0.1 0.3 0.1 0.2 0.1 0.4 0.1 0.2 0 0.3 0 32.1-8 64.7-13.6l9.5-1.6q0.1 0 0.2-0.1 0.2 0 0.3-0.1 0.1-0.1 0.2-0.2 0.1-0.1 0.1-0.2 8.3-14.2 30.4-51.4 14.5-24.5 27-44.3 1.9-3 5.3-1.2 0.1 0 0.2 0.1 3.2 2 1.2 5.2-26.2 42.3-52.6 87.6-0.3 0.6 0.2 0.4l36.8-14.4q3.5-1.5 5 2.6 0 0.2 0.1 1 0.1 3-2.6 4.1l-41.9 16.2q-0.1 0.1-0.1 0.1-0.1 0.1-0.1 0.2 0 0 0 0.1 0 0.1 0.1 0.2 4 5.6 7.9 11c4.2 5.8 9.8 11.7 16.9 13.5q3.4 0.9 9.6 0.2c7.1-0.8 14.3-2.9 20.7-5.5q4.3-1.7 8.4-3.7 13-6.1 32.5-17.8 4.2-2.5 8.2-5.5 7-5.2 14.7-6.7 10-2 18.4 4c1.2 0.9 1.6 0.7 2.9 0.4 2.4-0.5 4.2 0.7 4.7 3.1q0.3 1.5-1.1 3.8-3.2 5-6.6 13.6c-1.6 4-2.8 8.6-1.8 12.7 0.8 3.3 6.5 2.1 8.5 1.4q12.5-3.9 28.7-12.7 18-9.7 31-17.4 3.4-1.9 5.8 1.8 0.1 0.1 0.1 0.2 0.9 3.1-1.8 4.6-18.1 10.9-36.1 20.3-13.7 7.2-27 11.3-1.9 0.6-5.2 0.6c-7 0.2-11.7-3.8-12-11.1q-0.3-4.6 0.6-8.5 0.4-1.6-0.8-0.5c-7.7 7-15.4 13.1-24.7 16.5q-2.9 1.1-7.2 0.9c-9.9-0.5-10.7-11.3-7.3-18.1q0.1-0.1 0.1-0.2-0.1-0.1-0.1-0.2-0.1-0.1-0.2-0.1-0.1-0.1-0.2-0.1-1 0.3-2.2 1-18.2 11-37 17.1-10.1 3.2-21.8 3.1zm-240.9-19.1q10-8.2 18.8-16.9 0.1-0.2 0.2-0.4 0.1-0.2 0-0.4 0-0.3-0.1-0.5-0.2-0.2-0.4-0.3-7.4-4-15.3-0.9-13 5.2-20.2 18.7-1.7 3.2-2.2 7.1c-0.6 5.5 5.5 3 8.3 1.4q4.9-2.8 10.9-7.8zm328 0q9.9-8.2 18.7-16.9 0.1-0.1 0.2-0.4 0.1-0.2 0-0.4 0-0.2-0.1-0.4-0.2-0.2-0.4-0.3-7.4-4.1-15.3-1-13 5.2-20.2 18.7-1.6 3.2-2.1 7.1c-0.7 5.4 5.5 3 8.2 1.4q4.9-2.8 11-7.8zm-224.6 11.8q-12.2 4.1-17.5 8.3-1.2 1-1.6 2.2-0.2 0.5 0.3 0.7 3.9 1 8.1-0.1 12.9-3.3 23.6-11.3 2.8-2 5-4.6 0.2-0.3 0.2-0.7 0 0-0.1-0.1 0-0.1-0.1-0.1 0-0.1-0.1-0.1-0.1 0-0.2 0-8.8 2.9-17.6 5.8z"/>
		<path class="s12" d="m1385.9 680.4q-6 5-10.9 7.9c-2.8 1.5-8.9 4-8.3-1.5q0.5-3.9 2.2-7.1 7.2-13.5 20.2-18.7 7.9-3.1 15.3 0.9 0.2 0.1 0.4 0.3 0.1 0.2 0.1 0.5 0.1 0.2 0 0.4-0.1 0.2-0.2 0.4-8.8 8.7-18.8 16.9z"/>
		<path class="s13" d="m1340.9 745.4q-6.1 5-11 7.8c-2.7 1.6-8.9 4.1-8.2-1.4q0.5-3.9 2.1-7.1 7.2-13.5 20.2-18.7 7.9-3.1 15.3 1 0.2 0.1 0.4 0.3 0.1 0.2 0.1 0.4 0.1 0.2 0 0.4-0.1 0.3-0.2 0.4-8.8 8.7-18.7 16.9z"/>
		<path class="s12" d="m1819.8 515.5l3.5 0.3q0.5 0 0.1 0.4-0.6 0.3-0.5 1 0 0.4 0.7 0.8 1 0.7 2.1 1.4c3.1 1.8 4.8 4.6 4.9 8.3 0.2 7.3-0.2 13 4.4 18.3 2.1 2.5 7.6 7.1 9.9 10.8 6.6 10.7 4.7 23.5 6.6 35.3q2.1 14 7.9 26.9c2.8 6.1 7.4 12.4 11.3 18.5q4.1 6.5 7.2 17.1 6.8 23.1 12.1 38c6.1 17.2 16.1 32.6 24.2 49.5 3.5 7.3 7.2 16 11.4 23.6q2.7 5 5.5 9.9 2.3 4.1 6.8 16.6c1.5 4.1 4.6 10.3 7.6 15q7.5 11.5 14.4 25.6 2.6 5.4 7.3 13.9 6.6 12 7.3 13.8 9 21.1 23.6 39.1 10.7 13.2 11.4 14.1 8.1 10.5 17.7 21.5 3.1 3.6 6.1 5.9 6.8 5.6 14.2 13.9 3.8 4.3 11.6 10.8c3.6 3 6.8 6.3 10 9.8q2.1 2.2 7.2 5.5 0.8 0.5 9 5.8c7.7 4.8 14.6 10.2 22 15.3 3.5 2.4 5.8 6.5 8.7 9.4 3 3.1 8.7 6.1 11.6 8.2q3.8 2.6 9 5.1 3 1.4 9.2 4.8 1.7 0.9 3.3-0.7 1.3-1.3 1.8-5.8 0.6-5 1.1-10v78.3q-0.3 0.2-0.4 0.5h-146.8q-10.3-4.8-16.1-10.3-1.7-1.6-7.3-7.9-4.1-4.5-8.1-8.5-8-7.8-16.4-16.2-8.5-8.6-11.8-12.5-8.4-9.9-12.8-14.9c-6.9-7.9-19.2-16.2-25.2-21.8q-4.1-3.7-9.4-10.1-10.7-13.1-15.9-19.1c-8.7-10-17.9-18.5-27.6-26.4q-7-5.6-10.4-9.1-10.7-10.9-15.5-18.7-4.4-7.3-8.8-14.7-2.7-4.4-11.6-14.5-11.4-12.8-19.9-21.5c-5.7-5.8-12.8-10.1-18.5-15.1-5.2-4.5-11.2-10.5-19.8-19.1q-8.4-8.3-16.3-14.2-6.9-5.2-9.8-8.2-7.5-8.1-13.6-18.1-7-11.4-10.8-16.5c-4.7-6.3-12.5-12.8-17.5-17.5q-2.3-2.1-6.8-6.9-16-17.1-26.2-27c-3.9-3.8-6.6-8.7-9.1-12.7-1.7-2.5-5-5.6-8-8q-9.1-7.6-13.5-11.9c-9-8.7-16.4-18.6-21.3-29.9-3.1-6.9-5.8-13.1-10.4-19.9q-1.9-3-10-12.6-2.9-3.4-5.8-10.1-4.4-10.1-5.3-12.2c-2.8-6.6-8-9.9-15.6-15.9q-12.1-9.5-6.7-24.1 2.8-7.4 7.3-14c5.7-8.1 12.6-16.1 15.2-25.4q1.5-5.7 2.2-14.3 4.6-1.7 6.9-3.1 9.4-5.7 17.7-13.3 1.2-1.1 0.8 0.4-0.8 3.6-0.6 7.7c0.6 12.3 10.6 13.5 20.1 10.4q6.7-2.2 11.2-4.3 23.5-11 45.7-24.4 0.4-0.3 0.8 0 4.8 2.7 6.9 3.3 7 1.7 19.4 4.8 2.4 0.6 0.1 1.4-9.9 3.1-14.9 4.7-8.9 3-15.9 6.8-4.7 2.6-7.4 5.2-0.7 0.6-2.1 2.8-1 1.6-1.2 3.1c-0.7 7.7 5.4 10.4 12.1 10.1q5.5-0.2 10.1-1.7 17.6-5.6 28.8-17.6 3.4-3.7 4.5-8.1 0.3-0.9 1.2-1.1 32.5-8 66.3-13.8 0 0 0.1 0 0.1 0.1 0.1 0.1 0.1 0.1 0.1 0.2 0 0-0.1 0.1l-13.8 24.2q-1.8 3.2 1.9 5.5 0 0 0.3 0.1 3.1 0.8 4.8-2.1l14.8-25.7q0.1-0.2 0.3-0.3 0.1 0 0.3-0.1 0.2 0 0.4 0.1 0.1 0.1 0.2 0.3 5.9 9.2 12.2 16.6 8 9.4 20 11zm-153 68.5q0-3-1.2-5.7c-0.7-1.8-1.8-3.5-3.2-4.8q-2.1-2.1-4.8-3.3c-1.8-0.7-3.7-1.1-5.7-1.1-2 0-3.9 0.4-5.7 1.1q-2.7 1.2-4.8 3.3c-1.4 1.3-2.5 3-3.2 4.8q-1.2 2.7-1.2 5.7c0 1.9 0.4 3.8 1.2 5.6 0.7 1.8 1.8 3.5 3.2 4.9 1.4 1.3 3 2.4 4.8 3.2 1.8 0.7 3.7 1.1 5.7 1.1 2 0 3.9-0.4 5.7-1.1 1.8-0.8 3.4-1.9 4.8-3.2 1.4-1.4 2.5-3.1 3.2-4.9 0.8-1.8 1.2-3.7 1.2-5.6zm-81.9-13q0-0.3-0.2-0.7-0.1-0.3-0.4-0.6-0.2-0.2-0.6-0.4-0.3-0.1-0.7-0.1h-0.2q-0.3 0-0.7 0.1-0.3 0.2-0.6 0.4-0.2 0.3-0.4 0.6-0.1 0.4-0.1 0.7v25.8q0 0.3 0.1 0.7 0.2 0.3 0.4 0.6 0.3 0.2 0.6 0.4 0.4 0.1 0.7 0.1h0.2q0.4 0 0.7-0.1 0.4-0.2 0.6-0.4 0.3-0.3 0.4-0.6 0.2-0.4 0.2-0.7zm147.6 8c-1.8-2.1-1.1-4.6 1.4-5.7q2.8-1.2 4.9 1.8 0.3 0.4 0.8 0.5 1.1 0.2 2.1-0.7 0.7-0.7 0.4-1.7c-0.6-1.8-1.7-2.3-3.5-3.2-4.4-2-8.8-0.3-10.6 4.2q-1.5 3.8 1.5 7.4 1.1 1.3 3.4 2.1c2.7 1.1 6 2.3 6.3 5.1q0.3 3.8-2.9 5.4c-3 1.5-5-0.2-7-2.2q-0.2-0.3-0.4-0.4-0.3-0.1-0.6-0.2-0.3 0-0.6 0-0.2 0.1-0.5 0.2-1.5 0.8-0.9 2.8 0.5 1.7 3.5 3.2 6.6 3.1 10.6-1.4 2.7-3 2.8-6.7 0.1-4.2-3.9-7.1-1.5-1.1-4.4-2-1.8-0.6-2.4-1.4z"/>
		<path class="s12" d="m1385.3 711.2q8.8-2.9 17.6-5.8 0.1 0 0.2 0 0.1 0 0.1 0.1 0.1 0 0.1 0.1 0.1 0.1 0.1 0.1 0 0.4-0.2 0.7-2.2 2.5-5 4.6-10.7 8-23.6 11.3-4.2 1.1-8.1 0.1-0.5-0.2-0.3-0.7 0.4-1.2 1.6-2.2 5.3-4.2 17.5-8.3z"/>
		<path class="s14" d="m424 779.8c2.1-4.6-2.1-6.8-5.8-8q-2-0.6-2.8-1.5-2.1-2.3-2.4-3.6-0.8-3.6 1.4-6.5c3.4-4.2 9.2-4.1 12.4 0.5q1.1 1.5-0.4 2.6 0 0-0.2 0.1-1.5 1-2.5-0.5-1.8-2.6-4.5-1.6c-2 0.8-3.1 2.7-2.3 4.7q0.6 1.3 2.8 2.2c2.2 0.8 3.6 1.2 5.1 2.4q4.4 3.5 3.5 8.2-0.7 3.8-3.4 6-3.1 2.6-7.4 1.8-2.6-0.5-5.4-3.4-0.6-0.7-0.7-1.3-0.1-2.2 2.1-2.3 0.2-0.1 0.3 0 0.2 0 0.3 0 0.2 0.1 0.3 0.2 0.1 0.1 0.2 0.2 0.7 0.6 1.4 1.4c1.5 1.5 3.8 1.7 5.5 0.9q1.7-0.7 2.5-2.5z"/>
		<path class="s14" d="m491.4 761.6q0-0.1-0.1-0.2 0-0.1-0.1-0.2-0.1-0.1-0.2-0.2-0.1 0-0.2 0l-6.8-0.2q-1.8-0.1-1.7-1.9 0-0.1 0-0.1-0.1-1.8 2-1.8l17.6-0.1q1.2 0 1.2 1.2l-0.1 1.6q0 1.5-1.5 1.5l-5.5-0.2q-0.6 0-0.6 0.6l-0.6 23.8q0 0.2-0.1 0.3-0.1 0.2-0.2 0.3-0.1 0.1-0.2 0.2-0.2 0-0.3 0h-2.1q-1.2-0.1-1.1-1.2c0.5-5 1-8.1 0.7-12q-0.5-4.6-0.1-11.4z"/>
		<path class="s14" d="m576.3 780.8q2.2-1.9 2.3-6 0.1-11.5 0.4-16.1 0.1-1.5 1.7-1.5h0.4q0.2 0 0.5 0.1 0.2 0.1 0.4 0.3 0.2 0.2 0.3 0.4 0.1 0.3 0.1 0.6 0.2 9.5-0.1 17.7-0.3 6.4-5.8 9.2c-5.2 2.8-11.8 0.4-14.2-4.9q-1.1-2.2-1.1-6.9-0.1-9.4 0-14.3 0-1.6 1.6-1.8l1-0.2q1.5-0.2 1.4 1.3-0.1 8.8 0 13.6 0 1.7 0.3 4.9 0.2 2.7 2 4.2 4.1 3.5 8.8-0.6z"/>
		<path class="s14" d="m638.9 758.6q0-0.3 0.1-0.6 0.1-0.3 0.4-0.6 0.2-0.2 0.5-0.3 0.3-0.2 0.7-0.2l5.8 0.1c2 0 3.9 0.4 5.7 1.1 1.8 0.8 3.5 1.9 4.9 3.2 1.4 1.4 2.5 3 3.2 4.8 0.8 1.8 1.1 3.7 1.1 5.7v0.3c0 2-0.4 3.9-1.1 5.7-0.8 1.7-1.9 3.4-3.3 4.7-1.4 1.4-3.1 2.5-4.9 3.2-1.8 0.7-3.8 1.1-5.8 1.1l-5.8-0.1q-0.3 0-0.6-0.1-0.4-0.1-0.6-0.4-0.2-0.2-0.4-0.5-0.1-0.3-0.1-0.7zm3.9 2.8v20.9q0 0.1 0 0.2 0.1 0.1 0.1 0.2 0.1 0 0.2 0.1 0.1 0 0.1 0h3c1.4 0 2.9-0.3 4.2-0.8 1.4-0.6 2.6-1.3 3.7-2.3 1-1 1.8-2.2 2.4-3.5q0.9-2.1 0.9-4.2v-0.2c0-1.4-0.3-2.8-0.9-4.1-0.5-1.3-1.4-2.5-2.4-3.5-1-1-2.3-1.8-3.6-2.4-1.4-0.5-2.8-0.8-4.3-0.8h-2.9q-0.1 0-0.2 0-0.1 0.1-0.1 0.1-0.1 0.1-0.1 0.2-0.1 0.1-0.1 0.1z"/>
		<path class="s14" d="m794.8 772c0 1.9-0.4 3.8-1.2 5.6-0.7 1.8-1.8 3.5-3.2 4.9-1.4 1.3-3 2.4-4.8 3.2-1.8 0.7-3.7 1.1-5.7 1.1-2 0-3.9-0.4-5.7-1.1-1.8-0.8-3.4-1.9-4.8-3.2-1.4-1.4-2.5-3.1-3.2-4.9-0.8-1.8-1.2-3.7-1.2-5.6q0-3 1.2-5.7c0.7-1.8 1.8-3.5 3.2-4.8q2.1-2.1 4.8-3.3c1.8-0.7 3.7-1.1 5.7-1.1 2 0 3.9 0.4 5.7 1.1q2.7 1.2 4.8 3.3c1.4 1.3 2.5 3 3.2 4.8q1.2 2.7 1.2 5.7zm-4.1-0.1q0-2.1-0.9-4.2c-0.5-1.3-1.3-2.5-2.3-3.5-1-1-2.2-1.8-3.5-2.3-1.3-0.6-2.7-0.8-4.1-0.8-1.5 0-2.9 0.2-4.2 0.8-1.3 0.5-2.5 1.3-3.5 2.3-1 1-1.8 2.2-2.3 3.5q-0.9 2.1-0.9 4.2c0 1.4 0.3 2.8 0.9 4.1 0.5 1.3 1.3 2.5 2.3 3.5 1 1 2.2 1.8 3.5 2.4 1.3 0.5 2.7 0.8 4.2 0.8 1.4 0 2.8-0.3 4.1-0.8 1.3-0.6 2.5-1.4 3.5-2.4 1-1 1.8-2.2 2.3-3.5 0.6-1.3 0.9-2.7 0.9-4.1z"/>
		<path class="s14" d="m710.8 757.2h0.2c1 0 1.9 0.8 1.9 1.8v25.8c0 1-0.9 1.8-1.9 1.8h-0.2c-1 0-1.8-0.8-1.8-1.8v-25.8c0-1 0.8-1.8 1.8-1.8z"/>
		<path class="s14" d="m862.9 768.4q2.9 0.9 4.4 2.1 4 2.9 3.9 7-0.1 3.8-2.8 6.8-3.9 4.5-10.5 1.4-3.1-1.5-3.6-3.2-0.6-2.1 0.9-2.8 0.3-0.2 0.5-0.2 0.3-0.1 0.6 0 0.3 0 0.6 0.2 0.2 0.1 0.4 0.3c2 2 4.1 3.8 7 2.3q3.2-1.6 2.9-5.5c-0.3-2.8-3.6-3.9-6.3-5q-2.3-0.9-3.4-2.2-3-3.5-1.5-7.4c1.8-4.5 6.2-6.2 10.6-4.1 1.8 0.9 2.9 1.3 3.5 3.2q0.3 0.9-0.4 1.6-1 1-2.1 0.8-0.5-0.1-0.7-0.5-2.2-3-5-1.8c-2.5 1-3.2 3.6-1.4 5.7q0.6 0.8 2.4 1.3z"/>
		<path class="s12" d="m1383.8 757.4q0-0.1 0-0.1 0-0.1 0.1-0.2 0.1-0.1 0.1-0.1 0.1 0 0.2 0h2.9c1.5 0 3 0.3 4.3 0.8q2.1 0.9 3.6 2.4c1.1 1 1.9 2.1 2.5 3.5 0.5 1.3 0.8 2.7 0.8 4.1v0.2c0 1.4-0.3 2.8-0.8 4.1-0.6 1.3-1.4 2.5-2.5 3.5-1 1-2.3 1.8-3.6 2.4-1.4 0.5-2.8 0.8-4.3 0.8h-2.9q-0.1 0-0.2-0.1-0.1 0-0.1-0.1-0.1 0-0.1-0.1-0.1-0.1-0.1-0.2z"/>
		<path class="s12" d="m1373.9 774.7c-6 0-10.8-4.8-10.8-10.8 0-6 4.8-10.8 10.8-10.8 5.9 0 10.8 4.8 10.8 10.8 0 6-4.9 10.8-10.8 10.8z"/>
		<path class="s9" d="m1280 1279.5v0.5h-0.4q0.1-0.3 0.4-0.5z"/>
	</g>
</svg>